# xmcd CD database file
#
# Track frame offsets:
#	150
#	14853
#	29726
#	41878
#	56688
#	69765
#	85159
#	99741
#	114184
#	128831
#	141145
#	156498
#	170195
#	182190
#	196580
#	208579
#	221729
#	235253
#	249366
#	263875
#	277925
#	290229
#
# Disc length: 4018 seconds
#
# Revision: 3
# Processed by: cddbd v1.5PL3 Copyright (c) Steve Scherf et al.
# Submitted via: CDex 1.51
#
DISCID=550fb016
DTITLE=Ella Fitzgerald - Sings 'n' swings
DYEAR=2000
DGENRE=Jazz
TTITLE0=Oh Lady Be Good
TTITLE1=He's My Guy
TTITLE2=It's only a Paper Moon
TTITLE3=Sentimental Journey
TTITLE4=You Won't Be Satisfied Until You Break My Heart
TTITLE5=Benny's Coming Home On Saturday
TTITLE6=A Sunday Kind Of Love
TTITLE7=Guilty
TTITLE8=And Her Tears Flowed Like Wine
TTITLE9=I'm Beginning to See The Light
TTITLE10=I'm Confessing (That I Love You)
TTITLE11=Moonray
TTITLE12=It's A Pity To Say Goodnight
TTITLE13=Somebody Nobody Loves
TTITLE14=Stone Cold Dead In The Market
TTITLE15=I'm Just a Lucky Sso-And-So
TTITLE16=My Heart And I Decide
TTITLE17=Don't you Think I Oughta Know
TTITLE18=The Frim Fram Sauce
TTITLE19=A Kiss Goodnight
TTITLE20=When My Sugar Walks Down The Street
TTITLE21=Flying Home
EXTD=YEAR: 2000
EXTT0=
EXTT1=
EXTT2=
EXTT3=
EXTT4=
EXTT5=
EXTT6=
EXTT7=
EXTT8=
EXTT9=
EXTT10=
EXTT11=
EXTT12=
EXTT13=
EXTT14=
EXTT15=
EXTT16=
EXTT17=
EXTT18=
EXTT19=
EXTT20=
EXTT21=
PLAYORDER=
